<?xml version="1.0" encoding="utf-8"?>
<!DOCTYPE svg PUBLIC "-//W3C//DTD SVG 1.0//EN" "http://www.w3.org/TR/2001/REC-SVG-20010904/DTD/svg10.dtd">
<svg version="1.0" xmlns="http://www.w3.org/2000/svg" width="67px" height="99px" viewBox="0 0 67 99" preserveAspectRatio="xMidYMid meet">
 <g fill="#ffffff">
  <path d="M24.3 86 c-12.8 -5.9 -18.3 -12.2 -18.3 -21.1 0 -7 1.5 -9.3 13.4 -21.1 10 -10 13.6 -15.7 13.5 -21.8 0 -4.3 -2.1 -10.5 -4.5 -13.1 -3 -3.3 -0.1 -2 4.8 2.1 5.8 5 10.4 12 11.3 17 0.9 5.4 -2.3 12.2 -11 23 -12.9 16.2 -13.7 23.1 -3.8 34.1 4.2 4.6 3 4.8 -5.4 0.9z"/>
 </g>
 <g fill="#ffffff">
  <path d="M33 78.9 c-3.2 -7.7 -1.1 -13.5 9.9 -27.1 7.1 -8.9 8.8 -12.8 7.9 -18.8 -0.8 -5.2 2 -1.4 3.2 4.3 1.1 5.5 0.1 13.7 -2.1 17.9 -0.6 1.1 -3.7 4.9 -6.9 8.3 -6.3 6.8 -7.8 9.1 -9.5 14.9 l-1.1 3.9 -1.4 -3.4z"/>
 </g>
 <g fill="#ffffff">
  <path d="M39.1 86.2 c-0.1 -3.5 1.5 -6 9 -13.8 5.6 -5.9 7 -7.9 7.5 -11.5 l0.7 -4.4 1.3 3 c1.9 4.4 1.7 9.5 -0.5 13.2 -1.1 1.7 -5.3 5.4 -9.4 8.2 -4.2 2.8 -7.7 5.6 -8 6.3 -0.3 0.7 -0.6 0.3 -0.6 -1z"/>
 </g>
</svg>